<svg width="142" height="48" viewBox="0 0 142 48" fill="none" xmlns="http://www.w3.org/2000/svg">
<path d="M39.5 24L30 43.5H25.5H10.3038L6.03038 35L0.5 24L10 4.5H14.5H30L34.141 13L39.5 24Z" fill="white"/>
<path d="M25.5 35L31 24L25.5 13L34.5 24L25.5 35Z" fill="black"/>
<path d="M13 15L14.5 13L9 24L14.5 35L6 24L13 15Z" fill="black"/>
<path d="M53.7871 24.2051C53.0254 24.2051 52.4264 23.9902 51.9902 23.5605C51.554 23.1243 51.3359 22.4766 51.3359 21.6172V8.90234H52.9277V21.5098C52.9277 21.959 53.0124 22.2845 53.1816 22.4863C53.3574 22.6816 53.6276 22.7793 53.9922 22.7793C54.2135 22.7793 54.4382 22.7435 54.666 22.6719L54.8027 22.7109L54.9883 23.9609C54.8711 24.0391 54.7018 24.0977 54.4805 24.1367C54.2656 24.1823 54.0345 24.2051 53.7871 24.2051ZM65.623 18.9805H58.2207C58.2663 20.2891 58.5788 21.2493 59.1582 21.8613C59.7441 22.4733 60.5449 22.7793 61.5605 22.7793C62.3288 22.7793 62.9473 22.6426 63.416 22.3691C63.8848 22.0957 64.2526 21.666 64.5195 21.0801H64.7246L65.7598 21.6953C65.4473 22.4766 64.946 23.0918 64.2559 23.541C63.5723 23.9837 62.6738 24.2051 61.5605 24.2051C60.5189 24.2051 59.6237 24 58.875 23.5898C58.1263 23.1797 57.5501 22.5579 57.1465 21.7246C56.7428 20.8913 56.541 19.8561 56.541 18.6191C56.541 17.3952 56.7526 16.3633 57.1758 15.5234C57.6055 14.6836 58.1882 14.0586 58.9238 13.6484C59.666 13.2318 60.5124 13.0234 61.4629 13.0234C62.8431 13.0234 63.9206 13.4141 64.6953 14.1953C65.4701 14.9701 65.8607 16.1224 65.8672 17.6523C65.8672 18.2513 65.8542 18.6549 65.8281 18.8633L65.623 18.9805ZM64.2949 17.6523C64.2689 16.5065 64.015 15.6732 63.5332 15.1523C63.0514 14.6315 62.3613 14.3711 61.4629 14.3711C60.5189 14.3711 59.7767 14.6348 59.2363 15.1621C58.7025 15.6829 58.377 16.513 58.2598 17.6523H64.2949ZM73.6602 24H71.4727L67.3711 13.2285H69.0898L72.4785 22.1836H72.7031L76.0625 13.2285H77.7422L73.6602 24ZM80.9453 11.1484C80.6068 11.1484 80.3301 11.0443 80.1152 10.8359C79.9069 10.6211 79.8027 10.3509 79.8027 10.0254C79.8027 9.69987 79.9069 9.43294 80.1152 9.22461C80.3301 9.00977 80.6068 8.90234 80.9453 8.90234C81.2839 8.90234 81.5573 9.00977 81.7656 9.22461C81.9805 9.43294 82.0879 9.69987 82.0879 10.0254C82.0879 10.3509 81.9805 10.6211 81.7656 10.8359C81.5573 11.0443 81.2839 11.1484 80.9453 11.1484ZM80.1445 24V13.2285H81.7363V24H80.1445ZM90.9062 22.291L91.4141 23.4336C91.1602 23.6875 90.8249 23.8796 90.4082 24.0098C89.998 24.14 89.5521 24.2051 89.0703 24.2051C87.013 24.2051 85.9844 23.1634 85.9844 21.0801V14.5273H84.1094V13.2188H85.9844V10.9434L87.5762 10.6797V13.2188H91.043V14.5273H87.5762V20.9238C87.5762 22.1608 88.1133 22.7793 89.1875 22.7793C89.7734 22.7793 90.278 22.6165 90.7012 22.291H90.9062ZM96.2676 24.2051C95.2064 24.2051 94.3763 23.9284 93.7773 23.375C93.1849 22.8216 92.8887 22.0306 92.8887 21.002C92.8887 20.3639 93.0189 19.8268 93.2793 19.3906C93.5462 18.9479 93.9564 18.5898 94.5098 18.3164C95.0632 18.0365 95.7858 17.8216 96.6777 17.6719C97.459 17.5417 98.0514 17.3952 98.4551 17.2324C98.8652 17.0697 99.1387 16.8874 99.2754 16.6855C99.4186 16.4837 99.4902 16.2298 99.4902 15.9238C99.4902 15.4355 99.321 15.0612 98.9824 14.8008C98.6504 14.5404 98.1133 14.4102 97.3711 14.4102C96.6745 14.4102 96.0755 14.5469 95.5742 14.8203C95.0794 15.0872 94.6237 15.4876 94.207 16.0215H94.0117L93.2305 14.918C93.6862 14.3385 94.2656 13.8796 94.9688 13.541C95.6719 13.196 96.4727 13.0234 97.3711 13.0234C98.6406 13.0234 99.5749 13.3034 100.174 13.8633C100.779 14.4167 101.082 15.1849 101.082 16.168V21.8809C101.082 22.4798 101.336 22.7793 101.844 22.7793C102.013 22.7793 102.176 22.75 102.332 22.6914L102.469 22.7305L102.654 23.834C102.537 23.9121 102.381 23.9707 102.186 24.0098C101.997 24.0553 101.801 24.0781 101.6 24.0781C101.007 24.0781 100.558 23.9479 100.252 23.6875C99.9525 23.4271 99.7604 23.043 99.6758 22.5352L99.4707 22.5156C99.1647 23.082 98.7513 23.5052 98.2305 23.7852C97.7096 24.0651 97.0553 24.2051 96.2676 24.2051ZM96.6191 22.9355C97.2181 22.9355 97.7357 22.7988 98.1719 22.5254C98.6146 22.2454 98.9531 21.8548 99.1875 21.3535C99.4219 20.8522 99.5391 20.2728 99.5391 19.6152V18.248L99.3535 18.209C99.1126 18.3783 98.8197 18.5215 98.4746 18.6387C98.1296 18.7493 97.6478 18.8503 97.0293 18.9414C96.4043 19.026 95.9062 19.1562 95.5352 19.332C95.1706 19.5078 94.9102 19.7324 94.7539 20.0059C94.5977 20.2728 94.5195 20.6048 94.5195 21.002C94.5195 21.6335 94.7051 22.1152 95.0762 22.4473C95.4473 22.7728 95.9616 22.9355 96.6191 22.9355ZM110.125 22.291L110.633 23.4336C110.379 23.6875 110.044 23.8796 109.627 24.0098C109.217 24.14 108.771 24.2051 108.289 24.2051C106.232 24.2051 105.203 23.1634 105.203 21.0801V14.5273H103.328V13.2188H105.203V10.9434L106.795 10.6797V13.2188H110.262V14.5273H106.795V20.9238C106.795 22.1608 107.332 22.7793 108.406 22.7793C108.992 22.7793 109.497 22.6165 109.92 22.291H110.125ZM113.719 11.1484C113.38 11.1484 113.104 11.0443 112.889 10.8359C112.68 10.6211 112.576 10.3509 112.576 10.0254C112.576 9.69987 112.68 9.43294 112.889 9.22461C113.104 9.00977 113.38 8.90234 113.719 8.90234C114.057 8.90234 114.331 9.00977 114.539 9.22461C114.754 9.43294 114.861 9.69987 114.861 10.0254C114.861 10.3509 114.754 10.6211 114.539 10.8359C114.331 11.0443 114.057 11.1484 113.719 11.1484ZM112.918 24V13.2285H114.51V24H112.918ZM122.576 24.2051C121.561 24.2051 120.675 23.9902 119.92 23.5605C119.171 23.1309 118.592 22.4993 118.182 21.666C117.778 20.8262 117.576 19.8105 117.576 18.6191C117.576 17.4277 117.778 16.4121 118.182 15.5723C118.592 14.7324 119.171 14.0977 119.92 13.668C120.675 13.2383 121.561 13.0234 122.576 13.0234C123.592 13.0234 124.474 13.2383 125.223 13.668C125.978 14.0977 126.557 14.7324 126.961 15.5723C127.371 16.4121 127.576 17.4277 127.576 18.6191C127.576 19.8105 127.371 20.8262 126.961 21.666C126.557 22.4993 125.978 23.1309 125.223 23.5605C124.474 23.9902 123.592 24.2051 122.576 24.2051ZM122.576 22.7793C123.65 22.7793 124.471 22.4408 125.037 21.7637C125.61 21.0866 125.896 20.0384 125.896 18.6191C125.896 17.1934 125.61 16.1419 125.037 15.4648C124.471 14.7878 123.65 14.4492 122.576 14.4492C121.502 14.4492 120.678 14.791 120.105 15.4746C119.533 16.1517 119.246 17.1999 119.246 18.6191C119.246 20.0384 119.533 21.0866 120.105 21.7637C120.678 22.4408 121.502 22.7793 122.576 22.7793ZM130.633 24V13.2285H132.146V14.918L132.352 14.9668C132.71 14.3353 133.165 13.8535 133.719 13.5215C134.279 13.1895 134.959 13.0234 135.76 13.0234C137.055 13.0234 137.993 13.3555 138.572 14.0195C139.158 14.6771 139.451 15.6927 139.451 17.0664V24H137.859V17.1055C137.859 16.4544 137.775 15.9336 137.605 15.543C137.443 15.1458 137.186 14.8594 136.834 14.6836C136.489 14.5013 136.033 14.4102 135.467 14.4102C134.497 14.4102 133.712 14.7324 133.113 15.377C132.521 16.015 132.225 17.0469 132.225 18.4727V24H130.633Z" fill="white"/>
<path d="M50.8379 37.5742C50.6686 37.5742 50.5303 37.5221 50.4229 37.418C50.3187 37.3105 50.2666 37.1755 50.2666 37.0127C50.2666 36.8499 50.3187 36.7165 50.4229 36.6123C50.5303 36.5049 50.6686 36.4512 50.8379 36.4512C51.0072 36.4512 51.1439 36.5049 51.248 36.6123C51.3555 36.7165 51.4092 36.8499 51.4092 37.0127C51.4092 37.1755 51.3555 37.3105 51.248 37.418C51.1439 37.5221 51.0072 37.5742 50.8379 37.5742ZM50.4375 44V38.6143H51.2334V44H50.4375ZM53.1133 44V38.6143H53.8701V39.459L53.9727 39.4834C54.1517 39.1676 54.3796 38.9268 54.6562 38.7607C54.9362 38.5947 55.2764 38.5117 55.6768 38.5117C56.3245 38.5117 56.7933 38.6777 57.083 39.0098C57.376 39.3385 57.5225 39.8464 57.5225 40.5332V44H56.7266V40.5527C56.7266 40.2272 56.6842 39.9668 56.5996 39.7715C56.5182 39.5729 56.3896 39.4297 56.2139 39.3418C56.0413 39.2507 55.8135 39.2051 55.5303 39.2051C55.0452 39.2051 54.653 39.3662 54.3535 39.6885C54.0573 40.0075 53.9092 40.5234 53.9092 41.2363V44H53.1133ZM59.5391 44V39.2637H58.6016V38.6094H59.5391C59.4805 38.375 59.4512 38.152 59.4512 37.9404C59.4512 37.5921 59.5244 37.2992 59.6709 37.0615C59.8206 36.8206 60.0273 36.6416 60.291 36.5244C60.5547 36.4072 60.859 36.3486 61.2041 36.3486C61.7412 36.3486 62.153 36.4642 62.4395 36.6953L62.1318 37.2568L62.0293 37.2764C61.8177 37.1071 61.5426 37.0225 61.2041 37.0225C60.8883 37.0225 60.6491 37.1038 60.4863 37.2666C60.3268 37.4294 60.2471 37.6605 60.2471 37.96C60.2471 38.1455 60.2764 38.362 60.335 38.6094H62.0488V39.2637H60.335V44H59.5391ZM65.1982 44.1025C64.6904 44.1025 64.2477 43.9951 63.8701 43.7803C63.4958 43.5654 63.2061 43.2497 63.001 42.833C62.7992 42.4131 62.6982 41.9053 62.6982 41.3096C62.6982 40.7139 62.7992 40.2061 63.001 39.7861C63.2061 39.3662 63.4958 39.0488 63.8701 38.834C64.2477 38.6191 64.6904 38.5117 65.1982 38.5117C65.7061 38.5117 66.1471 38.6191 66.5215 38.834C66.8991 39.0488 67.1888 39.3662 67.3906 39.7861C67.5957 40.2061 67.6982 40.7139 67.6982 41.3096C67.6982 41.9053 67.5957 42.4131 67.3906 42.833C67.1888 43.2497 66.8991 43.5654 66.5215 43.7803C66.1471 43.9951 65.7061 44.1025 65.1982 44.1025ZM65.1982 43.3896C65.7354 43.3896 66.1455 43.2204 66.4287 42.8818C66.7152 42.5433 66.8584 42.0192 66.8584 41.3096C66.8584 40.5967 66.7152 40.071 66.4287 39.7324C66.1455 39.3939 65.7354 39.2246 65.1982 39.2246C64.6611 39.2246 64.2493 39.3955 63.9629 39.7373C63.6764 40.0758 63.5332 40.5999 63.5332 41.3096C63.5332 42.0192 63.6764 42.5433 63.9629 42.8818C64.2493 43.2204 64.6611 43.3896 65.1982 43.3896ZM71.9316 43.1455L72.1855 43.7168C72.0586 43.8438 71.891 43.9398 71.6826 44.0049C71.4775 44.07 71.2546 44.1025 71.0137 44.1025C69.985 44.1025 69.4707 43.5817 69.4707 42.54V39.2637H68.5332V38.6094H69.4707V37.4717L70.2666 37.3398V38.6094H72V39.2637H70.2666V42.4619C70.2666 43.0804 70.5352 43.3896 71.0723 43.3896C71.3652 43.3896 71.6175 43.3083 71.8291 43.1455H71.9316ZM77.4541 41.4902H73.7529C73.7757 42.1445 73.932 42.6247 74.2217 42.9307C74.5146 43.2367 74.915 43.3896 75.4229 43.3896C75.807 43.3896 76.1162 43.3213 76.3506 43.1846C76.585 43.0479 76.7689 42.833 76.9023 42.54H77.0049L77.5225 42.8477C77.3662 43.2383 77.1156 43.5459 76.7705 43.7705C76.4287 43.9919 75.9795 44.1025 75.4229 44.1025C74.902 44.1025 74.4544 44 74.0801 43.7949C73.7057 43.5898 73.4176 43.279 73.2158 42.8623C73.014 42.4456 72.9131 41.9281 72.9131 41.3096C72.9131 40.6976 73.0189 40.1816 73.2305 39.7617C73.4453 39.3418 73.7367 39.0293 74.1045 38.8242C74.4756 38.6159 74.8988 38.5117 75.374 38.5117C76.0641 38.5117 76.6029 38.707 76.9902 39.0977C77.3776 39.485 77.5729 40.0612 77.5762 40.8262C77.5762 41.1257 77.5697 41.3275 77.5566 41.4316L77.4541 41.4902ZM76.79 40.8262C76.777 40.2533 76.6501 39.8366 76.4092 39.5762C76.1683 39.3158 75.8232 39.1855 75.374 39.1855C74.902 39.1855 74.5309 39.3174 74.2607 39.5811C73.9938 39.8415 73.8311 40.2565 73.7725 40.8262H76.79ZM81.1553 44.1025C80.68 44.1025 80.2536 43.9951 79.876 43.7803C79.4984 43.5622 79.2005 43.2432 78.9824 42.8232C78.7643 42.4001 78.6553 41.8955 78.6553 41.3096C78.6553 40.7204 78.7643 40.2158 78.9824 39.7959C79.2005 39.3727 79.4984 39.0537 79.876 38.8389C80.2536 38.6208 80.68 38.5117 81.1553 38.5117C81.7249 38.5117 82.1774 38.6191 82.5127 38.834C82.8512 39.0488 83.0954 39.3353 83.2451 39.6934L82.7031 40.084H82.6055C82.459 39.7878 82.2702 39.5713 82.0391 39.4346C81.8112 39.2946 81.5166 39.2246 81.1553 39.2246C80.8232 39.2246 80.5319 39.3027 80.2812 39.459C80.0306 39.6152 79.8353 39.8496 79.6953 40.1621C79.5586 40.4746 79.4902 40.8571 79.4902 41.3096C79.4902 41.7588 79.5602 42.1396 79.7002 42.4521C79.8402 42.7614 80.0339 42.9958 80.2812 43.1553C80.5319 43.3115 80.8232 43.3896 81.1553 43.3896C81.5296 43.3896 81.8389 43.305 82.083 43.1357C82.3304 42.9665 82.5241 42.6995 82.6641 42.335H82.7666L83.2891 42.6426C83.1491 43.0951 82.8984 43.4515 82.5371 43.7119C82.179 43.9723 81.7184 44.1025 81.1553 44.1025ZM84.5586 44V36.4512H85.3545V39.3809L85.457 39.4004C85.8411 38.8079 86.3962 38.5117 87.1221 38.5117C87.7699 38.5117 88.2386 38.6777 88.5283 39.0098C88.8213 39.3385 88.9678 39.8464 88.9678 40.5332V44H88.1719V40.5527C88.1719 40.2272 88.1296 39.9668 88.0449 39.7715C87.9635 39.5729 87.835 39.4297 87.6592 39.3418C87.4867 39.2507 87.2588 39.2051 86.9756 39.2051C86.4873 39.2051 86.0951 39.363 85.7988 39.6787C85.5026 39.9945 85.3545 40.5137 85.3545 41.2363V44H84.5586Z" fill="white"/>
</svg>
